<svg xmlns="http://www.w3.org/2000/svg" xmlns:xlink="http://www.w3.org/1999/xlink" width="500" zoomAndPan="magnify" viewBox="0 0 375 374.999991" height="500" preserveAspectRatio="xMidYMid meet" version="1.2"><defs/><g id="ea1a4cd6a3"><g style="fill:#000000;fill-opacity:1;"><g transform="translate(90.647372, 230.302349)"><path style="stroke:none" d="M 75.390625 -5.375 C 76.285156 -4.601562 76.351562 -4.15625 75.59375 -4.03125 C 74.5625 -3.644531 73.566406 -3.128906 72.609375 -2.484375 C 71.648438 -1.847656 70.660156 -1.210938 69.640625 -0.578125 C 68.867188 -0.191406 68.035156 0 67.140625 0 C 65.484375 0 63.953125 0.222656 62.546875 0.671875 C 61.140625 1.117188 59.734375 1.597656 58.328125 2.109375 C 56.398438 2.878906 54.476562 3.265625 52.5625 3.265625 C 51.925781 3.265625 51.671875 3.582031 51.796875 4.21875 C 50.898438 5.113281 49.941406 5.5625 48.921875 5.5625 C 47.898438 5.6875 46.941406 5.875 46.046875 6.125 C 45.148438 6.382812 44.191406 6.644531 43.171875 6.90625 C 42.648438 7.164062 42.519531 7.613281 42.78125 8.25 C 43.164062 9.65625 42.847656 10.359375 41.828125 10.359375 C 41.691406 10.359375 41.59375 10.328125 41.53125 10.265625 C 41.46875 10.203125 41.375 10.171875 41.25 10.171875 C 38.8125 9.660156 36.1875 9.40625 33.375 9.40625 C 32.863281 9.40625 32.484375 9.46875 32.234375 9.59375 C 31.847656 9.84375 31.269531 9.96875 30.5 9.96875 C 29.988281 9.96875 29.507812 9.90625 29.0625 9.78125 C 28.613281 9.65625 28.132812 9.53125 27.625 9.40625 C 26.34375 9.40625 24.710938 8.921875 22.734375 7.953125 C 20.753906 6.992188 19.25 6.195312 18.21875 5.5625 C 17.320312 5.175781 16.425781 4.726562 15.53125 4.21875 C 14.644531 3.707031 13.753906 3.195312 12.859375 2.6875 C 12.347656 1.914062 11.832031 1.082031 11.3125 0.1875 C 10.800781 -0.707031 10.289062 -1.601562 9.78125 -2.5 C 9.65625 -2.75 9.5625 -3.035156 9.5 -3.359375 C 9.4375 -3.679688 9.273438 -3.90625 9.015625 -4.03125 C 8.117188 -4.800781 7.414062 -5.695312 6.90625 -6.71875 C 6.394531 -7.738281 5.820312 -8.695312 5.1875 -9.59375 C 4.800781 -10.226562 4.316406 -11.664062 3.734375 -13.90625 C 3.160156 -16.144531 2.8125 -17.648438 2.6875 -18.421875 C 2.5625 -19.316406 2.367188 -20.144531 2.109375 -20.90625 C 1.859375 -21.675781 1.796875 -22.445312 1.921875 -23.21875 C 1.921875 -23.976562 1.757812 -24.644531 1.4375 -25.21875 C 1.113281 -25.800781 1.019531 -26.410156 1.15625 -27.046875 C 1.15625 -27.691406 1.117188 -28.332031 1.046875 -28.96875 C 0.984375 -29.601562 0.828125 -30.175781 0.578125 -30.6875 C 0.578125 -35.550781 0.863281 -39.867188 1.4375 -43.640625 C 2.007812 -47.410156 3.191406 -51.664062 4.984375 -56.40625 C 5.117188 -56.789062 5.25 -57.171875 5.375 -57.546875 C 5.5 -57.929688 5.625 -58.378906 5.75 -58.890625 C 5.882812 -60.296875 6.238281 -61.640625 6.8125 -62.921875 C 7.382812 -64.203125 7.925781 -65.484375 8.4375 -66.765625 C 9.082031 -67.148438 9.367188 -67.660156 9.296875 -68.296875 C 9.234375 -68.929688 9.332031 -69.441406 9.59375 -69.828125 C 10.363281 -72.128906 11.320312 -74.492188 12.46875 -76.921875 C 13.625 -79.359375 14.90625 -81.597656 16.3125 -83.640625 C 16.5625 -84.148438 16.6875 -84.40625 16.6875 -84.40625 C 17.707031 -86.96875 18.984375 -89.332031 20.515625 -91.5 C 22.054688 -93.675781 23.59375 -95.851562 25.125 -98.03125 C 25.769531 -99.050781 26.410156 -99.945312 27.046875 -100.71875 C 27.691406 -101.488281 28.394531 -102.320312 29.15625 -103.21875 C 29.664062 -103.851562 30.175781 -104.519531 30.6875 -105.21875 C 31.207031 -105.925781 31.722656 -106.597656 32.234375 -107.234375 C 32.867188 -108.265625 33.535156 -109.128906 34.234375 -109.828125 C 34.941406 -110.535156 35.679688 -111.335938 36.453125 -112.234375 C 37.472656 -113.378906 38.585938 -114.492188 39.796875 -115.578125 C 41.015625 -116.671875 42.140625 -117.789062 43.171875 -118.9375 C 44.441406 -119.832031 45.398438 -120.726562 46.046875 -121.625 C 46.171875 -121.882812 46.617188 -122.269531 47.390625 -122.78125 C 48.660156 -123.675781 49.835938 -124.503906 50.921875 -125.265625 C 52.015625 -126.035156 53.140625 -126.804688 54.296875 -127.578125 C 55.566406 -128.472656 56.84375 -129.238281 58.125 -129.875 C 59.40625 -130.519531 60.6875 -131.289062 61.96875 -132.1875 C 62.988281 -132.1875 63.914062 -132.40625 64.75 -132.84375 C 65.582031 -133.289062 66.445312 -133.582031 67.34375 -133.71875 C 67.976562 -133.84375 68.613281 -133.90625 69.25 -133.90625 C 69.894531 -133.90625 70.472656 -133.90625 70.984375 -133.90625 C 71.617188 -133.90625 72.222656 -133.90625 72.796875 -133.90625 C 73.378906 -133.90625 73.925781 -133.84375 74.4375 -133.71875 C 77.757812 -133.71875 80.1875 -132.5 81.71875 -130.0625 C 83.257812 -127.632812 84.476562 -125.144531 85.375 -122.59375 C 85.5 -121.945312 85.242188 -121.367188 84.609375 -120.859375 C 84.347656 -120.734375 84.023438 -120.671875 83.640625 -120.671875 C 83.253906 -120.671875 82.9375 -120.734375 82.6875 -120.859375 C 82.039062 -121.242188 81.300781 -121.660156 80.46875 -122.109375 C 79.644531 -122.554688 78.910156 -123.035156 78.265625 -123.546875 C 77.503906 -124.179688 76.675781 -124.628906 75.78125 -124.890625 C 74.882812 -125.148438 73.925781 -125.28125 72.90625 -125.28125 C 68.550781 -125.28125 64.710938 -124.0625 61.390625 -121.625 C 60.234375 -120.988281 59.078125 -120.285156 57.921875 -119.515625 C 56.773438 -118.753906 55.628906 -118.050781 54.484375 -117.40625 C 54.222656 -117.40625 54.09375 -117.34375 54.09375 -117.21875 C 52.945312 -115.9375 51.671875 -114.878906 50.265625 -114.046875 C 48.859375 -113.210938 47.578125 -112.09375 46.421875 -110.6875 C 45.785156 -109.789062 45.050781 -108.925781 44.21875 -108.09375 C 43.382812 -107.269531 42.519531 -106.472656 41.625 -105.703125 C 40.726562 -105.066406 39.925781 -104.269531 39.21875 -103.3125 C 38.519531 -102.351562 37.789062 -101.550781 37.03125 -100.90625 C 36.132812 -100.007812 35.363281 -99.144531 34.71875 -98.3125 C 34.082031 -97.488281 33.445312 -96.5625 32.8125 -95.53125 C 32.164062 -94.769531 31.585938 -93.972656 31.078125 -93.140625 C 30.566406 -92.304688 29.925781 -91.503906 29.15625 -90.734375 C 29.03125 -90.609375 28.898438 -90.445312 28.765625 -90.25 C 28.640625 -90.0625 28.515625 -89.84375 28.390625 -89.59375 C 27.878906 -88.945312 27.398438 -88.304688 26.953125 -87.671875 C 26.503906 -87.035156 26.085938 -86.394531 25.703125 -85.75 C 25.191406 -85.113281 24.679688 -84.441406 24.171875 -83.734375 C 23.660156 -83.035156 23.34375 -82.300781 23.21875 -81.53125 C 22.0625 -79.875 21.066406 -78.210938 20.234375 -76.546875 C 19.410156 -74.878906 18.484375 -73.148438 17.453125 -71.359375 L 17.265625 -71.171875 C 16.753906 -70.660156 16.46875 -69.988281 16.40625 -69.15625 C 16.34375 -68.320312 15.988281 -67.585938 15.34375 -66.953125 C 14.957031 -66.441406 14.671875 -65.832031 14.484375 -65.125 C 14.296875 -64.425781 14.070312 -63.753906 13.8125 -63.109375 C 13.550781 -62.472656 13.257812 -61.832031 12.9375 -61.1875 C 12.625 -60.550781 12.34375 -59.785156 12.09375 -58.890625 C 12.09375 -58.765625 11.898438 -58.222656 11.515625 -57.265625 C 11.128906 -56.304688 10.742188 -55.347656 10.359375 -54.390625 C 9.972656 -53.429688 9.78125 -52.953125 9.78125 -52.953125 C 9.90625 -51.410156 9.679688 -49.96875 9.109375 -48.625 C 8.535156 -47.289062 8.1875 -45.914062 8.0625 -44.5 C 7.550781 -43.738281 7.359375 -43.164062 7.484375 -42.78125 C 7.484375 -41.25 7.320312 -39.679688 7 -38.078125 C 6.675781 -36.484375 6.515625 -34.789062 6.515625 -33 C 6.515625 -31.332031 6.484375 -29.664062 6.421875 -28 C 6.359375 -26.34375 6.390625 -24.617188 6.515625 -22.828125 C 7.160156 -16.554688 9.847656 -11.3125 14.578125 -7.09375 C 19.304688 -2.875 24.804688 -0.765625 31.078125 -0.765625 C 31.335938 -0.765625 31.691406 -0.765625 32.140625 -0.765625 C 32.585938 -0.765625 32.9375 -0.703125 33.1875 -0.578125 C 34.59375 -0.191406 35.875 0 37.03125 0 C 38.4375 0 39.773438 -0.191406 41.046875 -0.578125 C 41.691406 -0.578125 42.207031 -0.640625 42.59375 -0.765625 C 44.757812 -1.023438 46.992188 -1.34375 49.296875 -1.71875 C 51.597656 -2.101562 53.898438 -2.617188 56.203125 -3.265625 C 57.742188 -3.898438 59.34375 -4.410156 61 -4.796875 C 62.664062 -5.179688 64.332031 -5.566406 66 -5.953125 C 68.164062 -6.585938 70.304688 -7.285156 72.421875 -8.046875 C 74.535156 -8.816406 76.613281 -9.585938 78.65625 -10.359375 C 79.675781 -10.742188 80.601562 -11.191406 81.4375 -11.703125 C 82.269531 -12.210938 83.132812 -12.46875 84.03125 -12.46875 C 84.789062 -13.101562 85.679688 -13.550781 86.703125 -13.8125 C 87.734375 -14.070312 88.695312 -14.457031 89.59375 -14.96875 C 90.738281 -15.863281 91.828125 -16.3125 92.859375 -16.3125 C 93.109375 -16.3125 93.390625 -16.375 93.703125 -16.5 C 94.023438 -16.625 94.316406 -16.75 94.578125 -16.875 C 95.597656 -17.519531 96.648438 -18 97.734375 -18.3125 C 98.828125 -18.632812 99.882812 -19.179688 100.90625 -19.953125 C 101.289062 -20.335938 101.738281 -20.144531 102.25 -19.375 L 101.109375 -18.21875 C 100.078125 -17.457031 99.082031 -16.691406 98.125 -15.921875 C 97.164062 -15.148438 96.175781 -14.445312 95.15625 -13.8125 C 94.644531 -13.425781 94.132812 -13.171875 93.625 -13.046875 C 92.34375 -12.660156 91.125 -12.210938 89.96875 -11.703125 C 88.820312 -11.191406 87.609375 -10.742188 86.328125 -10.359375 C 85.816406 -10.097656 85.238281 -9.875 84.59375 -9.6875 C 83.957031 -9.5 83.445312 -9.082031 83.0625 -8.4375 C 83.445312 -8.3125 83.640625 -8.054688 83.640625 -7.671875 C 83.640625 -7.160156 83.445312 -6.90625 83.0625 -6.90625 C 82.9375 -6.78125 82.773438 -6.75 82.578125 -6.8125 C 82.390625 -6.875 82.171875 -6.90625 81.921875 -6.90625 C 81.785156 -6.90625 81.71875 -6.875 81.71875 -6.8125 C 81.71875 -6.75 81.71875 -6.71875 81.71875 -6.71875 L 81.34375 -6.71875 C 81.34375 -6.582031 81.210938 -6.390625 80.953125 -6.140625 C 80.953125 -6.140625 80.890625 -6.171875 80.765625 -6.234375 C 80.640625 -6.296875 80.507812 -6.328125 80.375 -6.328125 C 80.632812 -6.585938 80.765625 -6.71875 80.765625 -6.71875 L 81.34375 -6.71875 C 81.59375 -6.84375 81.785156 -6.90625 81.921875 -6.90625 C 81.921875 -7.164062 82.046875 -7.421875 82.296875 -7.671875 C 82.804688 -7.929688 83.0625 -8.1875 83.0625 -8.4375 C 81.40625 -8.3125 80.03125 -7.992188 78.9375 -7.484375 C 77.851562 -6.972656 76.671875 -6.269531 75.390625 -5.375 Z M 31.65625 2.875 C 32.164062 3 32.644531 3.125 33.09375 3.25 C 33.539062 3.382812 34.019531 3.582031 34.53125 3.84375 L 34.71875 3.640625 L 34.71875 3.265625 C 34.207031 2.617188 33.1875 2.171875 31.65625 1.921875 L 31.46875 2.109375 C 31.46875 2.492188 31.53125 2.75 31.65625 2.875 Z M 78.84375 -5.1875 C 78.976562 -4.800781 78.785156 -4.609375 78.265625 -4.609375 L 77.890625 -4.609375 C 77.765625 -4.734375 77.632812 -4.796875 77.5 -4.796875 C 77.375 -4.796875 77.375 -4.925781 77.5 -5.1875 C 77.5 -5.4375 77.59375 -5.59375 77.78125 -5.65625 C 77.976562 -5.71875 78.140625 -5.816406 78.265625 -5.953125 C 78.398438 -5.816406 78.53125 -5.6875 78.65625 -5.5625 C 78.78125 -5.4375 78.84375 -5.3125 78.84375 -5.1875 Z M 68.875 -3.265625 L 69.0625 -3.0625 C 69.1875 -3.0625 69.28125 -3.03125 69.34375 -2.96875 C 69.414062 -2.90625 69.515625 -2.875 69.640625 -2.875 C 69.890625 -2.875 70.144531 -3.003906 70.40625 -3.265625 L 70.21875 -3.640625 C 70.082031 -3.640625 69.984375 -3.671875 69.921875 -3.734375 C 69.859375 -3.804688 69.765625 -3.84375 69.640625 -3.84375 C 69.378906 -3.84375 69.125 -3.648438 68.875 -3.265625 Z M 66.765625 -2.875 C 66.628906 -2.875 66.5 -2.84375 66.375 -2.78125 C 66.25 -2.71875 66.054688 -2.6875 65.796875 -2.6875 C 66.054688 -2.425781 66.1875 -2.296875 66.1875 -2.296875 C 66.695312 -2.296875 67.082031 -2.363281 67.34375 -2.5 C 67.082031 -2.75 66.890625 -2.875 66.765625 -2.875 Z M 47.953125 3.265625 C 47.953125 3.390625 48.015625 3.515625 48.140625 3.640625 C 48.273438 3.773438 48.34375 3.84375 48.34375 3.84375 C 48.46875 3.84375 48.660156 3.710938 48.921875 3.453125 C 48.796875 3.453125 48.664062 3.421875 48.53125 3.359375 C 48.40625 3.296875 48.210938 3.265625 47.953125 3.265625 Z M 45.28125 8.828125 C 45.28125 8.828125 45.40625 8.953125 45.65625 9.203125 L 45.46875 9.40625 C 45.34375 9.40625 45.242188 9.367188 45.171875 9.296875 C 45.109375 9.234375 45.015625 9.203125 44.890625 9.203125 C 45.148438 8.953125 45.28125 8.828125 45.28125 8.828125 Z M 23.015625 -0.1875 C 23.015625 -0.1875 23.082031 -0.253906 23.21875 -0.390625 C 23.082031 -0.390625 22.984375 -0.421875 22.921875 -0.484375 C 22.859375 -0.546875 22.828125 -0.578125 22.828125 -0.578125 C 22.703125 -0.578125 22.609375 -0.546875 22.546875 -0.484375 C 22.484375 -0.421875 22.453125 -0.390625 22.453125 -0.390625 C 22.578125 -0.253906 22.765625 -0.1875 23.015625 -0.1875 Z M 10.75 -59.46875 L 10.9375 -60.046875 L 10.75 -60.046875 Z M 85.375 -8.0625 L 84.984375 -8.0625 Z M 85.375 -8.0625 "/></g></g><g style="fill:#000000;fill-opacity:1;"><g transform="translate(192.887485, 230.302349)"><path style="stroke:none" d="M 54.484375 20.90625 C 54.484375 22.3125 54.226562 23.082031 53.71875 23.21875 C 52.1875 23.21875 50.710938 23.472656 49.296875 23.984375 C 48.785156 24.234375 48.335938 24.359375 47.953125 24.359375 C 47.828125 24.359375 47.703125 24.328125 47.578125 24.265625 C 47.453125 24.203125 47.320312 24.234375 47.1875 24.359375 C 46.289062 24.359375 45.585938 24.613281 45.078125 25.125 C 44.953125 25.125 44.859375 25.125 44.796875 25.125 C 44.734375 25.125 44.570312 25.125 44.3125 25.125 C 43.03125 25.125 41.8125 25.441406 40.65625 26.078125 C 39.507812 26.722656 38.234375 27.238281 36.828125 27.625 C 35.296875 28.007812 33.796875 28.550781 32.328125 29.25 C 30.859375 29.957031 29.351562 30.4375 27.8125 30.6875 C 27.050781 30.820312 26.316406 31.175781 25.609375 31.75 C 24.910156 32.320312 24.238281 32.738281 23.59375 33 C 20.90625 34.40625 18.316406 36.003906 15.828125 37.796875 C 13.335938 39.585938 10.8125 41.378906 8.25 43.171875 C 7.988281 43.296875 7.765625 43.453125 7.578125 43.640625 C 7.390625 43.835938 7.164062 44 6.90625 44.125 C 6.269531 44.632812 5.695312 44.890625 5.1875 44.890625 C 4.414062 44.890625 3.582031 44.1875 2.6875 42.78125 C 2.425781 42.269531 2.164062 41.757812 1.90625 41.25 C 1.65625 40.738281 1.335938 40.226562 0.953125 39.71875 C -0.0664062 38.300781 -0.253906 36.507812 0.390625 34.34375 C 1.285156 31.65625 1.988281 28.96875 2.5 26.28125 C 2.5 26.28125 2.625 25.894531 2.875 25.125 C 3.644531 24.363281 4.15625 23.4375 4.40625 22.34375 C 4.664062 21.257812 4.925781 20.078125 5.1875 18.796875 C 5.3125 18.285156 5.5 17.644531 5.75 16.875 C 6.394531 15.851562 6.941406 14.609375 7.390625 13.140625 C 7.835938 11.671875 8.316406 10.359375 8.828125 9.203125 C 9.722656 6.648438 10.648438 4.15625 11.609375 1.71875 C 12.566406 -0.707031 13.492188 -3.132812 14.390625 -5.5625 C 14.773438 -6.71875 15.125 -7.929688 15.4375 -9.203125 C 15.757812 -10.484375 16.175781 -11.570312 16.6875 -12.46875 C 17.195312 -13.488281 17.613281 -14.570312 17.9375 -15.71875 C 18.257812 -16.875 18.546875 -17.96875 18.796875 -19 C 19.304688 -20.269531 19.753906 -21.445312 20.140625 -22.53125 C 20.523438 -23.625 20.910156 -24.8125 21.296875 -26.09375 C 22.316406 -29.800781 23.429688 -33.316406 24.640625 -36.640625 C 25.859375 -39.960938 26.984375 -43.351562 28.015625 -46.8125 C 29.035156 -49.75 29.925781 -52.65625 30.6875 -55.53125 C 31.457031 -58.414062 32.226562 -61.265625 33 -64.078125 C 33.25 -64.710938 33.4375 -65.316406 33.5625 -65.890625 C 33.695312 -66.472656 33.828125 -67.019531 33.953125 -67.53125 C 35.109375 -70.46875 36.097656 -73.472656 36.921875 -76.546875 C 37.753906 -79.617188 38.554688 -82.753906 39.328125 -85.953125 C 39.835938 -87.734375 40.347656 -89.488281 40.859375 -91.21875 C 41.367188 -92.945312 41.878906 -94.644531 42.390625 -96.3125 C 43.421875 -99.632812 44.347656 -102.988281 45.171875 -106.375 C 46.003906 -109.769531 46.675781 -113.191406 47.1875 -116.640625 C 47.832031 -119.328125 48.503906 -122.015625 49.203125 -124.703125 C 49.910156 -127.390625 50.519531 -130.140625 51.03125 -132.953125 C 51.414062 -134.484375 51.765625 -136.015625 52.078125 -137.546875 C 52.398438 -139.085938 52.691406 -140.5625 52.953125 -141.96875 C 53.078125 -142.351562 53.171875 -142.765625 53.234375 -143.203125 C 53.296875 -143.648438 53.394531 -144.003906 53.53125 -144.265625 C 54.164062 -145.285156 54.867188 -145.796875 55.640625 -145.796875 C 56.398438 -145.796875 57.035156 -145.414062 57.546875 -144.65625 C 57.804688 -144.394531 58 -144.265625 58.125 -144.265625 C 59.914062 -142.222656 60.90625 -140.082031 61.09375 -137.84375 C 61.289062 -135.601562 61.070312 -133.203125 60.4375 -130.640625 C 59.664062 -126.804688 58.703125 -123.421875 57.546875 -120.484375 C 56.910156 -118.691406 56.335938 -116.867188 55.828125 -115.015625 C 55.316406 -113.160156 54.867188 -111.335938 54.484375 -109.546875 C 54.097656 -107.878906 53.679688 -106.242188 53.234375 -104.640625 C 52.785156 -103.046875 52.367188 -101.351562 51.984375 -99.5625 C 51.734375 -98.664062 51.351562 -97.832031 50.84375 -97.0625 C 50.332031 -96.300781 49.945312 -95.410156 49.6875 -94.390625 C 49.5625 -93.367188 49.398438 -92.375 49.203125 -91.40625 C 49.015625 -90.445312 48.726562 -89.457031 48.34375 -88.4375 C 48.082031 -87.664062 47.789062 -86.925781 47.46875 -86.21875 C 47.15625 -85.519531 46.875 -84.722656 46.625 -83.828125 C 46.488281 -83.066406 46.289062 -82.363281 46.03125 -81.71875 C 45.78125 -81.082031 45.65625 -80.316406 45.65625 -79.421875 C 45.65625 -78.910156 45.554688 -78.332031 45.359375 -77.6875 C 45.171875 -77.050781 44.953125 -76.476562 44.703125 -75.96875 C 44.566406 -75.582031 44.335938 -75.257812 44.015625 -75 C 43.703125 -74.75 43.738281 -74.304688 44.125 -73.671875 C 44.125 -73.535156 43.992188 -73.085938 43.734375 -72.328125 C 43.359375 -71.679688 42.976562 -71.003906 42.59375 -70.296875 C 42.207031 -69.597656 41.882812 -68.929688 41.625 -68.296875 C 41.375 -67.398438 41.3125 -66.820312 41.4375 -66.5625 C 41.695312 -66.1875 41.757812 -65.804688 41.625 -65.421875 C 41.5 -65.035156 41.375 -64.710938 41.25 -64.453125 C 40.738281 -63.179688 40.128906 -61.804688 39.421875 -60.328125 C 38.722656 -58.859375 38.242188 -57.296875 37.984375 -55.640625 C 37.984375 -55.378906 37.914062 -55.148438 37.78125 -54.953125 C 37.65625 -54.765625 37.59375 -54.546875 37.59375 -54.296875 C 37.59375 -52.628906 37.335938 -51.0625 36.828125 -49.59375 C 36.316406 -48.125 35.742188 -46.6875 35.109375 -45.28125 C 34.984375 -44.894531 34.882812 -44.445312 34.8125 -43.9375 C 34.75 -43.425781 34.65625 -43.039062 34.53125 -42.78125 C 34.144531 -42.144531 33.953125 -41.34375 33.953125 -40.375 C 33.953125 -39.414062 33.632812 -38.679688 33 -38.171875 C 32.488281 -37.660156 32.265625 -36.957031 32.328125 -36.0625 C 32.390625 -35.164062 32.101562 -34.59375 31.46875 -34.34375 C 31.082031 -33.957031 30.890625 -33.445312 30.890625 -32.8125 C 31.015625 -32.039062 30.976562 -31.363281 30.78125 -30.78125 C 30.59375 -30.207031 30.375 -29.664062 30.125 -29.15625 C 29.613281 -28.132812 29.132812 -27.113281 28.6875 -26.09375 C 28.238281 -25.070312 27.945312 -23.921875 27.8125 -22.640625 C 27.6875 -21.742188 27.238281 -21.164062 26.46875 -20.90625 C 25.570312 -20.65625 25.445312 -20.082031 26.09375 -19.1875 C 26.476562 -18.289062 26.476562 -17.332031 26.09375 -16.3125 C 25.582031 -15.28125 25.101562 -14.253906 24.65625 -13.234375 C 24.207031 -12.210938 23.851562 -11.125 23.59375 -9.96875 C 23.34375 -8.945312 22.894531 -7.988281 22.25 -7.09375 C 21.613281 -6.195312 21.164062 -5.238281 20.90625 -4.21875 C 20.78125 -3.707031 20.585938 -3.257812 20.328125 -2.875 C 20.078125 -2.488281 20.144531 -1.976562 20.53125 -1.34375 C 20.394531 -0.707031 20.234375 -0.101562 20.046875 0.46875 C 19.859375 1.050781 19.632812 1.597656 19.375 2.109375 C 18.738281 3.390625 18.257812 4.796875 17.9375 6.328125 C 17.613281 7.867188 17.132812 9.34375 16.5 10.75 C 15.863281 12.019531 15.285156 13.453125 14.765625 15.046875 C 14.253906 16.648438 13.804688 18.222656 13.421875 19.765625 C 13.679688 20.660156 13.554688 21.332031 13.046875 21.78125 C 12.535156 22.226562 12.148438 22.832031 11.890625 23.59375 C 11.765625 24.363281 11.570312 25.066406 11.3125 25.703125 C 11.0625 26.347656 10.804688 27.050781 10.546875 27.8125 C 10.421875 28.195312 10.289062 28.613281 10.15625 29.0625 C 10.03125 29.507812 10.035156 29.925781 10.171875 30.3125 C 10.296875 30.4375 10.488281 30.5 10.75 30.5 C 11.125 30.5 11.503906 30.304688 11.890625 29.921875 C 13.804688 28.390625 16.300781 26.820312 19.375 25.21875 C 22.445312 23.625 25.582031 22.25 28.78125 21.09375 C 31.976562 19.945312 34.726562 19.179688 37.03125 18.796875 C 37.789062 18.546875 38.519531 18.320312 39.21875 18.125 C 39.925781 17.9375 40.664062 17.78125 41.4375 17.65625 C 42.59375 17.132812 43.875 16.875 45.28125 16.875 C 45.914062 16.875 46.457031 16.84375 46.90625 16.78125 C 47.351562 16.71875 47.769531 16.429688 48.15625 15.921875 C 48.28125 15.921875 48.375 15.921875 48.4375 15.921875 C 48.5 15.921875 48.53125 15.921875 48.53125 15.921875 C 49.8125 15.921875 51.023438 15.726562 52.171875 15.34375 C 53.328125 14.957031 54.484375 14.765625 55.640625 14.765625 C 55.765625 14.765625 55.859375 14.765625 55.921875 14.765625 C 55.984375 14.765625 56.078125 14.765625 56.203125 14.765625 C 57.359375 14.765625 58.507812 14.570312 59.65625 14.1875 C 60.8125 13.8125 61.960938 13.492188 63.109375 13.234375 C 63.628906 12.984375 64.015625 12.859375 64.265625 12.859375 C 65.285156 12.859375 66.335938 12.820312 67.421875 12.75 C 68.515625 12.6875 69.570312 12.59375 70.59375 12.46875 C 71.625 12.46875 72.648438 12.304688 73.671875 11.984375 C 74.691406 11.671875 75.710938 11.515625 76.734375 11.515625 C 80.054688 11.515625 83.441406 11.515625 86.890625 11.515625 C 90.347656 11.515625 93.742188 11.515625 97.078125 11.515625 C 97.328125 11.515625 97.546875 11.515625 97.734375 11.515625 C 97.929688 11.515625 98.09375 11.515625 98.21875 11.515625 C 98.863281 11.515625 99.503906 11.578125 100.140625 11.703125 C 100.785156 11.828125 101.363281 12.082031 101.875 12.46875 C 102.125 12.726562 102.378906 12.859375 102.640625 12.859375 C 103.023438 12.859375 103.34375 12.726562 103.59375 12.46875 C 105.257812 12.46875 107.175781 12.785156 109.34375 13.421875 C 110.375 14.066406 110.820312 14.582031 110.6875 14.96875 C 110.4375 15.988281 109.988281 16.625 109.34375 16.875 C 108.832031 17.007812 108.222656 17.203125 107.515625 17.453125 C 106.816406 17.710938 106.148438 17.84375 105.515625 17.84375 C 105.390625 17.84375 105.328125 17.84375 105.328125 17.84375 C 105.328125 17.84375 105.257812 17.84375 105.125 17.84375 C 104.875 17.84375 104.554688 17.84375 104.171875 17.84375 C 103.785156 17.84375 103.46875 17.84375 103.21875 17.84375 C 102.570312 17.84375 101.894531 17.84375 101.1875 17.84375 C 100.488281 17.84375 99.820312 17.84375 99.1875 17.84375 C 98.925781 17.84375 98.601562 17.875 98.21875 17.9375 C 97.84375 18 97.460938 18.160156 97.078125 18.421875 C 96.304688 18.804688 95.601562 19 94.96875 19 C 94.195312 19 93.492188 18.675781 92.859375 18.03125 L 89.203125 18.03125 C 88.691406 18.675781 87.988281 19 87.09375 19 C 86.195312 19 85.332031 19 84.5 19 C 83.675781 19 82.816406 19 81.921875 19 C 82.171875 18.226562 82.296875 17.84375 82.296875 17.84375 C 82.941406 17.582031 83.070312 17.003906 82.6875 16.109375 C 82.6875 16.109375 82.617188 16.078125 82.484375 16.015625 C 82.359375 15.953125 82.234375 15.921875 82.109375 15.921875 C 81.335938 15.921875 80.953125 16.238281 80.953125 16.875 C 80.953125 17.769531 80.789062 18.347656 80.46875 18.609375 C 80.15625 18.867188 79.679688 19 79.046875 19 C 78.273438 19 77.503906 19 76.734375 19 C 75.972656 19 75.269531 18.929688 74.625 18.796875 C 74.375 18.671875 74.117188 18.609375 73.859375 18.609375 C 73.597656 18.609375 73.40625 18.863281 73.28125 19.375 C 73.15625 19.632812 72.835938 19.765625 72.328125 19.765625 C 72.066406 19.890625 71.742188 19.984375 71.359375 20.046875 C 70.984375 20.109375 70.664062 20.140625 70.40625 20.140625 C 70.28125 20.140625 70.085938 20.140625 69.828125 20.140625 C 69.578125 20.140625 69.320312 20.140625 69.0625 20.140625 C 67.78125 20.140625 66.53125 20.332031 65.3125 20.71875 C 64.101562 21.101562 62.796875 21.421875 61.390625 21.671875 C 60.878906 21.804688 60.269531 21.96875 59.5625 22.15625 C 58.863281 22.351562 58.191406 22.453125 57.546875 22.453125 C 56.523438 22.453125 55.503906 22.066406 54.484375 21.296875 C 54.359375 21.035156 54.296875 20.773438 54.296875 20.515625 C 54.296875 20.265625 54.164062 20.269531 53.90625 20.53125 C 54.03125 20.53125 54.125 20.59375 54.1875 20.71875 C 54.257812 20.84375 54.359375 20.90625 54.484375 20.90625 Z M 33 -48.15625 C 33.507812 -48.40625 33.765625 -48.722656 33.765625 -49.109375 C 33.765625 -49.492188 33.765625 -49.878906 33.765625 -50.265625 C 34.273438 -50.515625 34.53125 -50.832031 34.53125 -51.21875 C 34.53125 -51.601562 34.53125 -51.925781 34.53125 -52.1875 C 35.039062 -52.4375 35.296875 -52.785156 35.296875 -53.234375 C 35.296875 -53.679688 35.296875 -54.097656 35.296875 -54.484375 C 36.191406 -54.992188 36.640625 -55.695312 36.640625 -56.59375 C 36.640625 -56.59375 36.640625 -56.6875 36.640625 -56.875 C 36.640625 -57.070312 36.578125 -57.171875 36.453125 -57.171875 C 36.453125 -57.296875 36.421875 -57.359375 36.359375 -57.359375 C 36.296875 -57.359375 36.265625 -57.296875 36.265625 -57.171875 C 35.617188 -56.523438 35.296875 -55.628906 35.296875 -54.484375 C 34.910156 -54.359375 34.71875 -54.070312 34.71875 -53.625 C 34.71875 -53.175781 34.65625 -52.695312 34.53125 -52.1875 C 34.144531 -52.050781 33.953125 -51.789062 33.953125 -51.40625 C 33.953125 -51.03125 33.953125 -50.585938 33.953125 -50.078125 C 33.441406 -49.941406 33.1875 -49.300781 33.1875 -48.15625 C 32.800781 -47.769531 32.609375 -47.445312 32.609375 -47.1875 C 32.359375 -47.1875 32.425781 -47 32.8125 -46.625 C 32.9375 -47.132812 33 -47.644531 33 -48.15625 Z M 44.890625 -86.90625 C 44.503906 -86.78125 44.3125 -86.523438 44.3125 -86.140625 C 44.3125 -85.878906 44.441406 -85.75 44.703125 -85.75 C 44.828125 -86.007812 44.890625 -86.394531 44.890625 -86.90625 C 45.273438 -86.90625 45.46875 -87.289062 45.46875 -88.0625 C 45.46875 -88.0625 45.4375 -88.125 45.375 -88.25 C 45.3125 -88.375 45.210938 -88.4375 45.078125 -88.4375 C 45.078125 -88.1875 45.046875 -87.960938 44.984375 -87.765625 C 44.921875 -87.578125 44.890625 -87.289062 44.890625 -86.90625 Z M 33.765625 -59.65625 C 34.273438 -59.914062 34.53125 -60.238281 34.53125 -60.625 C 34.53125 -61.007812 34.53125 -61.457031 34.53125 -61.96875 C 35.039062 -62.09375 35.296875 -62.796875 35.296875 -64.078125 C 35.421875 -64.328125 35.546875 -64.484375 35.671875 -64.546875 C 35.804688 -64.617188 35.875 -64.71875 35.875 -64.84375 C 36 -64.96875 36 -65.125 35.875 -65.3125 C 35.75 -65.507812 35.6875 -65.671875 35.6875 -65.796875 C 35.6875 -65.035156 35.554688 -64.398438 35.296875 -63.890625 C 34.910156 -63.753906 34.6875 -63.492188 34.625 -63.109375 C 34.5625 -62.734375 34.53125 -62.351562 34.53125 -61.96875 C 34.144531 -61.84375 33.953125 -61.519531 33.953125 -61 C 33.953125 -60.488281 33.953125 -60.039062 33.953125 -59.65625 C 33.828125 -59.53125 33.695312 -59.46875 33.5625 -59.46875 C 33.4375 -59.46875 33.441406 -59.273438 33.578125 -58.890625 C 33.578125 -59.148438 33.609375 -59.3125 33.671875 -59.375 C 33.734375 -59.4375 33.765625 -59.53125 33.765625 -59.65625 Z M 32.421875 -55.640625 C 32.296875 -55.378906 32.195312 -55.1875 32.125 -55.0625 C 32.0625 -54.9375 31.96875 -54.742188 31.84375 -54.484375 C 31.84375 -54.484375 31.875 -54.382812 31.9375 -54.1875 C 32 -54 32.03125 -53.84375 32.03125 -53.71875 C 32.164062 -53.84375 32.265625 -54.160156 32.328125 -54.671875 C 32.390625 -55.179688 32.421875 -55.503906 32.421875 -55.640625 C 32.804688 -55.640625 32.867188 -55.828125 32.609375 -56.203125 C 32.609375 -56.078125 32.578125 -55.984375 32.515625 -55.921875 C 32.453125 -55.859375 32.421875 -55.765625 32.421875 -55.640625 Z M 28.015625 -39.90625 C 28.265625 -40.15625 28.453125 -40.472656 28.578125 -40.859375 C 28.578125 -40.859375 28.546875 -40.953125 28.484375 -41.140625 C 28.421875 -41.335938 28.390625 -41.4375 28.390625 -41.4375 C 28.265625 -41.4375 28.203125 -41.304688 28.203125 -41.046875 C 28.078125 -40.796875 28.015625 -40.414062 28.015625 -39.90625 C 27.878906 -39.90625 27.75 -39.773438 27.625 -39.515625 C 27.5 -39.265625 27.367188 -39.007812 27.234375 -38.75 C 26.859375 -38.625 26.632812 -38.335938 26.5625 -37.890625 C 26.5 -37.441406 26.46875 -37.023438 26.46875 -36.640625 C 26.34375 -36.515625 26.25 -36.382812 26.1875 -36.25 C 26.125 -36.125 26.03125 -35.9375 25.90625 -35.6875 C 25.90625 -35.6875 25.9375 -35.585938 26 -35.390625 C 26.0625 -35.203125 26.09375 -34.976562 26.09375 -34.71875 C 26.21875 -34.976562 26.28125 -35.234375 26.28125 -35.484375 C 26.40625 -35.617188 26.46875 -36.003906 26.46875 -36.640625 C 26.976562 -36.898438 27.234375 -37.21875 27.234375 -37.59375 C 27.234375 -37.976562 27.234375 -38.363281 27.234375 -38.75 C 27.617188 -38.875 27.878906 -39.257812 28.015625 -39.90625 Z M 29.359375 -45.28125 C 29.734375 -45.40625 29.953125 -45.660156 30.015625 -46.046875 C 30.085938 -46.429688 30.125 -46.8125 30.125 -47.1875 C 31.394531 -48.59375 31.84375 -50.191406 31.46875 -51.984375 C 30.570312 -50.328125 30.125 -48.726562 30.125 -47.1875 C 29.738281 -47.0625 29.546875 -46.742188 29.546875 -46.234375 C 29.546875 -45.722656 29.546875 -45.273438 29.546875 -44.890625 C 29.421875 -44.765625 29.289062 -44.664062 29.15625 -44.59375 C 29.03125 -44.53125 28.90625 -44.375 28.78125 -44.125 C 28.78125 -43.738281 28.972656 -43.546875 29.359375 -43.546875 C 29.359375 -43.804688 29.359375 -44.09375 29.359375 -44.40625 C 29.359375 -44.726562 29.359375 -45.019531 29.359375 -45.28125 Z M 70.59375 17.84375 C 70.46875 17.84375 70.335938 17.84375 70.203125 17.84375 C 70.078125 17.84375 69.890625 17.84375 69.640625 17.84375 C 69.378906 17.84375 69.054688 17.875 68.671875 17.9375 C 68.296875 18 67.976562 18.160156 67.71875 18.421875 C 67.976562 18.804688 68.363281 19 68.875 19 C 69.125 19 69.3125 19 69.4375 19 C 69.570312 19 69.703125 19 69.828125 19 C 70.210938 18.738281 70.40625 18.351562 70.40625 17.84375 C 70.914062 17.84375 71.234375 17.78125 71.359375 17.65625 C 71.492188 17.65625 71.625 17.585938 71.75 17.453125 C 71.625 17.453125 71.523438 17.390625 71.453125 17.265625 C 71.390625 17.140625 71.296875 17.078125 71.171875 17.078125 C 70.785156 17.078125 70.59375 17.332031 70.59375 17.84375 Z M 43.546875 -81.921875 C 43.035156 -81.410156 42.679688 -80.769531 42.484375 -80 C 42.296875 -79.226562 42.140625 -78.394531 42.015625 -77.5 C 40.859375 -76.601562 40.410156 -75.003906 40.671875 -72.703125 C 41.691406 -74.242188 42.140625 -75.910156 42.015625 -77.703125 C 42.785156 -77.953125 43.203125 -78.492188 43.265625 -79.328125 C 43.328125 -80.160156 43.359375 -81.023438 43.359375 -81.921875 C 43.484375 -82.046875 43.609375 -82.171875 43.734375 -82.296875 C 43.867188 -82.429688 44 -82.5625 44.125 -82.6875 C 44.125 -83.070312 43.929688 -83.265625 43.546875 -83.265625 C 43.546875 -83.003906 43.546875 -82.742188 43.546875 -82.484375 C 43.546875 -82.234375 43.546875 -82.046875 43.546875 -81.921875 Z M 11.125 11.515625 C 11.769531 11.378906 12.21875 10.929688 12.46875 10.171875 C 12.726562 9.523438 12.664062 9.078125 12.28125 8.828125 C 11.769531 8.566406 11.445312 8.691406 11.3125 9.203125 C 11.3125 9.710938 11.3125 10.128906 11.3125 10.453125 C 11.3125 10.773438 11.3125 11.128906 11.3125 11.515625 C 11.1875 11.640625 11.0625 11.796875 10.9375 11.984375 C 10.8125 12.179688 10.679688 12.34375 10.546875 12.46875 C 10.546875 12.851562 10.738281 13.046875 11.125 13.046875 C 11.125 12.785156 11.125 12.5625 11.125 12.375 C 11.125 12.1875 11.125 11.898438 11.125 11.515625 Z M 22.0625 -21.875 C 21.9375 -21.738281 21.804688 -21.609375 21.671875 -21.484375 C 21.546875 -21.359375 21.421875 -21.164062 21.296875 -20.90625 C 20.648438 -18.988281 20.039062 -17.101562 19.46875 -15.25 C 18.894531 -13.394531 18.289062 -11.570312 17.65625 -9.78125 C 17.519531 -9.394531 17.421875 -9.109375 17.359375 -8.921875 C 17.296875 -8.734375 17.265625 -8.507812 17.265625 -8.25 C 17.265625 -8.125 17.394531 -7.992188 17.65625 -7.859375 C 17.90625 -8.628906 18.347656 -9.363281 18.984375 -10.0625 C 19.628906 -10.769531 20.015625 -11.570312 20.140625 -12.46875 C 20.265625 -13.75 20.550781 -14.835938 21 -15.734375 C 21.445312 -16.628906 21.738281 -17.71875 21.875 -19 C 21.875 -19.507812 21.90625 -19.988281 21.96875 -20.4375 C 22.03125 -20.882812 22.0625 -21.363281 22.0625 -21.875 C 22.320312 -21.875 22.578125 -22.0625 22.828125 -22.4375 C 23.085938 -22.820312 23.28125 -23.144531 23.40625 -23.40625 C 23.53125 -23.65625 23.5625 -23.941406 23.5 -24.265625 C 23.4375 -24.585938 23.34375 -24.75 23.21875 -24.75 C 22.832031 -24.75 22.539062 -24.332031 22.34375 -23.5 C 22.15625 -22.664062 22.0625 -22.125 22.0625 -21.875 Z M 46.625 -93.421875 C 47.257812 -94.316406 47.609375 -95.210938 47.671875 -96.109375 C 47.734375 -97.003906 47.957031 -97.898438 48.34375 -98.796875 C 48.34375 -99.054688 48.375 -99.3125 48.4375 -99.5625 C 48.5 -99.820312 48.40625 -100.078125 48.15625 -100.328125 C 48.15625 -100.328125 48.054688 -100.234375 47.859375 -100.046875 C 47.671875 -99.859375 47.515625 -99.632812 47.390625 -99.375 C 47.253906 -98.738281 47.125 -98.066406 47 -97.359375 C 46.875 -96.660156 46.679688 -95.925781 46.421875 -95.15625 C 46.421875 -95.03125 46.453125 -94.804688 46.515625 -94.484375 C 46.585938 -94.160156 46.625 -93.804688 46.625 -93.421875 Z M 37.984375 -63.890625 C 37.859375 -63.367188 37.695312 -62.882812 37.5 -62.4375 C 37.3125 -62 37.15625 -61.457031 37.03125 -60.8125 C 37.15625 -60.8125 37.21875 -60.554688 37.21875 -60.046875 C 37.34375 -60.171875 37.46875 -60.234375 37.59375 -60.234375 C 37.851562 -60.878906 38.046875 -61.425781 38.171875 -61.875 C 38.304688 -62.320312 38.242188 -62.992188 37.984375 -63.890625 Z M 24.171875 -28.78125 C 24.679688 -29.289062 24.9375 -30.117188 24.9375 -31.265625 C 24.9375 -31.523438 24.8125 -31.71875 24.5625 -31.84375 C 24.425781 -31.332031 24.296875 -30.882812 24.171875 -30.5 C 24.046875 -30.113281 23.851562 -29.664062 23.59375 -29.15625 C 23.59375 -29.15625 23.625 -29.09375 23.6875 -28.96875 C 23.75 -28.84375 23.78125 -28.78125 23.78125 -28.78125 C 23.914062 -28.78125 23.984375 -28.78125 23.984375 -28.78125 C 23.984375 -28.78125 24.046875 -28.78125 24.171875 -28.78125 Z M 39.515625 -67.34375 C 39.648438 -67.851562 39.78125 -68.332031 39.90625 -68.78125 C 40.03125 -69.226562 40.15625 -69.707031 40.28125 -70.21875 C 40.414062 -70.34375 40.414062 -70.46875 40.28125 -70.59375 C 40.15625 -70.726562 40.09375 -70.859375 40.09375 -70.984375 C 39.96875 -70.984375 39.90625 -70.914062 39.90625 -70.78125 C 39.90625 -70.65625 39.84375 -70.59375 39.71875 -70.59375 C 38.820312 -69.695312 38.753906 -68.613281 39.515625 -67.34375 Z M 15.34375 0.953125 C 15.726562 0.953125 15.921875 0.765625 15.921875 0.390625 C 15.921875 0.253906 15.726562 0.1875 15.34375 0.1875 C 14.957031 0.1875 14.703125 0.253906 14.578125 0.390625 C 14.703125 0.765625 14.957031 0.953125 15.34375 0.953125 Z M 16.5 -2.296875 C 16.75 -2.296875 16.875 -2.363281 16.875 -2.5 C 16.75 -2.625 16.6875 -2.78125 16.6875 -2.96875 C 16.6875 -3.164062 16.625 -3.328125 16.5 -3.453125 C 16.375 -3.453125 16.273438 -3.484375 16.203125 -3.546875 C 16.140625 -3.609375 16.046875 -3.640625 15.921875 -3.640625 C 15.796875 -3.640625 15.734375 -3.445312 15.734375 -3.0625 C 15.734375 -2.6875 15.796875 -2.429688 15.921875 -2.296875 C 16.046875 -2.296875 16.140625 -2.296875 16.203125 -2.296875 C 16.273438 -2.296875 16.375 -2.296875 16.5 -2.296875 Z M 8.828125 20.53125 C 8.316406 20.269531 8.125 20.140625 8.25 20.140625 C 7.863281 20.140625 7.671875 20.523438 7.671875 21.296875 C 7.671875 21.421875 7.734375 21.515625 7.859375 21.578125 C 7.992188 21.640625 8.0625 21.671875 8.0625 21.671875 C 8.1875 21.546875 8.3125 21.351562 8.4375 21.09375 C 8.570312 20.84375 8.703125 20.65625 8.828125 20.53125 Z M 13.625 4.609375 C 13.363281 4.347656 13.109375 4.472656 12.859375 4.984375 C 12.859375 4.984375 12.859375 5.046875 12.859375 5.171875 C 12.859375 5.304688 12.859375 5.5 12.859375 5.75 C 12.859375 6.132812 12.984375 6.203125 13.234375 5.953125 C 13.492188 5.691406 13.625 5.242188 13.625 4.609375 Z M 85.375 17.078125 C 85.375 17.203125 85.40625 17.296875 85.46875 17.359375 C 85.53125 17.421875 85.5625 17.519531 85.5625 17.65625 C 85.820312 17.65625 85.953125 17.460938 85.953125 17.078125 C 85.953125 16.691406 85.882812 16.367188 85.75 16.109375 C 85.5 16.492188 85.375 16.816406 85.375 17.078125 Z M 59.09375 19.5625 C 59.21875 19.695312 59.40625 19.765625 59.65625 19.765625 C 59.65625 19.503906 59.59375 19.375 59.46875 19.375 C 59.34375 19.125 59.25 19.0625 59.1875 19.1875 C 59.125 19.3125 59.09375 19.4375 59.09375 19.5625 Z M 17.453125 -5.953125 C 17.328125 -5.953125 17.234375 -5.984375 17.171875 -6.046875 C 17.109375 -6.109375 17.007812 -6.140625 16.875 -6.140625 C 16.875 -5.878906 16.90625 -5.6875 16.96875 -5.5625 C 17.039062 -5.4375 17.078125 -5.375 17.078125 -5.375 C 17.328125 -5.375 17.453125 -5.566406 17.453125 -5.953125 Z M 48.734375 -102.4375 C 48.734375 -102.4375 48.765625 -102.375 48.828125 -102.25 C 48.890625 -102.125 48.921875 -102.0625 48.921875 -102.0625 C 49.046875 -102.0625 49.140625 -102.21875 49.203125 -102.53125 C 49.265625 -102.851562 49.234375 -103.082031 49.109375 -103.21875 C 48.859375 -103.082031 48.734375 -102.820312 48.734375 -102.4375 Z M 50.640625 -108.390625 C 50.640625 -108.390625 50.609375 -108.453125 50.546875 -108.578125 C 50.484375 -108.710938 50.453125 -108.78125 50.453125 -108.78125 C 50.328125 -108.519531 50.265625 -108.195312 50.265625 -107.8125 C 50.265625 -107.6875 50.328125 -107.492188 50.453125 -107.234375 C 50.453125 -107.492188 50.484375 -107.71875 50.546875 -107.90625 C 50.609375 -108.101562 50.640625 -108.265625 50.640625 -108.390625 Z M 39.328125 -79.234375 L 39.515625 -79.234375 L 39.328125 -79.421875 Z M 37.03125 -70.984375 L 37.21875 -70.59375 L 37.21875 -70.984375 Z M 38.75 -75.96875 L 38.5625 -75.96875 L 38.75 -75.78125 Z M 41.625 -86.71875 L 41.4375 -86.515625 L 41.625 -86.515625 Z M 57.75 19.5625 L 57.546875 19.375 L 57.546875 19.5625 Z M 31.84375 -44.703125 L 32.234375 -44.703125 Z M 38.75 -65.421875 L 38.75 -65.796875 L 38.5625 -65.421875 Z M 14.578125 2.875 L 14.578125 2.5 L 14.390625 2.875 Z M 79.046875 17.65625 L 79.046875 17.078125 L 78.84375 17.453125 Z M 9.203125 17.65625 L 9.59375 17.453125 L 9.40625 17.078125 Z M 95.15625 15.15625 L 94.765625 15.15625 L 94.96875 15.546875 Z M 95.15625 15.15625 "/></g></g></g></svg>